<svg id="Слой_1" data-name="Слой 1" xmlns="http://www.w3.org/2000/svg" viewBox="0 0 20 17"><defs><style>.cls-1{fill:#ff6767;}</style></defs><title>heart</title><path class="cls-1" d="M10,17a1.2,1.2,0,0,1-.77-.28L7,14.85H7A41.65,41.65,0,0,1,2,10.4,7,7,0,0,1,0,5.74,5.8,5.8,0,0,1,1.59,1.66,5.49,5.49,0,0,1,5.59,0,5.17,5.17,0,0,1,8.73,1,6.31,6.31,0,0,1,10,2.3,6.31,6.31,0,0,1,11.27,1a5.17,5.17,0,0,1,3.14-1,5.49,5.49,0,0,1,4,1.66A5.8,5.8,0,0,1,20,5.74a7,7,0,0,1-2,4.66,41.65,41.65,0,0,1-5,4.45l-2.28,1.87A1.2,1.2,0,0,1,10,17ZM5.59,1.12a4.3,4.3,0,0,0-3.14,1.3A4.71,4.71,0,0,0,1.17,5.74,5.82,5.82,0,0,0,2.89,9.68,41,41,0,0,0,7.71,14h0L10,15.88,12.29,14a41,41,0,0,0,4.82-4.32,5.82,5.82,0,0,0,1.72-3.94,4.71,4.71,0,0,0-1.28-3.32,4.3,4.3,0,0,0-3.14-1.3,4,4,0,0,0-2.42.8,5.41,5.41,0,0,0-1.35,1.5.77.77,0,0,1-1.28,0A5.41,5.41,0,0,0,8,1.92,4,4,0,0,0,5.59,1.12Z" transform="translate(0 0)"/><path class="cls-1" d="M18.41,1.66a5.49,5.49,0,0,0-4-1.66,5.17,5.17,0,0,0-3.14,1A6.31,6.31,0,0,0,10,2.3,6.31,6.31,0,0,0,8.73,1,5.17,5.17,0,0,0,5.59,0a5.49,5.49,0,0,0-4,1.66A5.8,5.8,0,0,0,0,5.74,7,7,0,0,0,2,10.4a41.65,41.65,0,0,0,5,4.45l2.28,1.87a1.2,1.2,0,0,0,1.54,0l2.28-1.87a41.65,41.65,0,0,0,5-4.45,7,7,0,0,0,2-4.66A5.8,5.8,0,0,0,18.41,1.66Z" transform="translate(0 0)"/></svg>